<svg id="Layer_1" data-name="Layer 1" xmlns="http://www.w3.org/2000/svg" viewBox="0 0 775.81 114.75"><defs><style>.cls-1{fill:#f16979;}</style></defs><path class="cls-1" d="M35.49,106.6q0-2.59-.19-6.73c-.12-2.76-.29-5.82-.5-9.15s-.44-6.9-.7-10.67-.56-7.49-.88-11.18-.6-7.3-.9-10.77-.55-6.62-.81-9.44a36,36,0,0,0-1.73-8.86C29,37.93,27.85,37,26.18,37s-2.61.45-3.11,1.33a7.79,7.79,0,0,0-.85,3.28c-.07,1.3-.1,2.72-.08,4.27a11.4,11.4,0,0,1-.71,4.27,6.8,6.8,0,0,1-2.77,3.29q-2,1.34-6.25,1.33A6.48,6.48,0,0,1,7.32,52.3Q5.21,49.83,5.2,45.14A19.91,19.91,0,0,1,9.07,33.2,31.69,31.69,0,0,1,20,24a63.07,63.07,0,0,1,17-5.91A105.92,105.92,0,0,1,59.07,16a63,63,0,0,1,16.05,1.94,44.67,44.67,0,0,1,12.73,5.33,27.34,27.34,0,0,1,8.41,8.06,18.07,18.07,0,0,1,3.06,10.13,21.67,21.67,0,0,1-3.6,11.83A40,40,0,0,1,85.8,63.62,67.66,67.66,0,0,1,71,71.8a100,100,0,0,1-18.31,5.44,3,3,0,0,0-2.75,3.36q0,2,.27,4.89t.54,6.15q.28,3.21.56,6.33c.18,2.09.27,4,.27,5.58q0,4.38-2,6.25c-1.35,1.26-3.35,1.9-6,1.9a11.34,11.34,0,0,1-5.89-1.29A4.2,4.2,0,0,1,35.49,106.6ZM83.12,43.72a7.37,7.37,0,0,0-2.27-5.08,20.57,20.57,0,0,0-6.13-4.32,39.59,39.59,0,0,0-8.87-3,49.31,49.31,0,0,0-10.61-1.11,41.91,41.91,0,0,0-4.6.21,9.84,9.84,0,0,0-2.94.67,3,3,0,0,0-1.52,1.2,3.93,3.93,0,0,0-.42,1.92c0,.53.08,1.75.23,3.65s.36,4.11.63,6.62.53,5.13.81,7.88.59,5.2.92,7.39A9.48,9.48,0,0,0,49,63a1.46,1.46,0,0,0,1.38.77,24.31,24.31,0,0,0,6.08-.89,52.77,52.77,0,0,0,7.1-2.42,66.56,66.56,0,0,0,7.13-3.54A49,49,0,0,0,77,52.68a24.47,24.47,0,0,0,4.48-4.54A7.61,7.61,0,0,0,83.12,43.72Z"/><path class="cls-1" d="M105.35,71.6a16,16,0,0,1,.32-3A20.15,20.15,0,0,0,106,65a2.24,2.24,0,0,0-1.15-2l-2.54-1.56a11,11,0,0,1-2.54-2.21,5.78,5.78,0,0,1-1.13-3.83,7.47,7.47,0,0,1,1-3.59,11,11,0,0,1,2.86-3.31A84.75,84.75,0,0,1,112,42.32,76.83,76.83,0,0,1,122,37.7a64.53,64.53,0,0,1,9.83-2.9,46.13,46.13,0,0,1,9.33-1,36.4,36.4,0,0,1,14.13,2.77,36,36,0,0,1,11.52,7.61,36.37,36.37,0,0,1,7.75,11.27,33.84,33.84,0,0,1,2.85,13.81,31.91,31.91,0,0,1-3,13.67,36.84,36.84,0,0,1-8.1,11.31,38.64,38.64,0,0,1-11.94,7.71,38.4,38.4,0,0,1-28.25.35,33.51,33.51,0,0,1-11-6.91,31.42,31.42,0,0,1-7.18-10.48A33.51,33.51,0,0,1,105.35,71.6ZM141.6,90.7a19.19,19.19,0,0,0,6.82-1.33,21.26,21.26,0,0,0,6.45-3.88,20.83,20.83,0,0,0,4.86-6.21A17.85,17.85,0,0,0,161.64,71a22.24,22.24,0,0,0-1.72-8.77,21.93,21.93,0,0,0-4.73-7.08,21.62,21.62,0,0,0-7.13-4.73,22.7,22.7,0,0,0-8.87-1.73q-8.72,0-13.34,4.5T121.25,67a28.31,28.31,0,0,0,1.52,9.46,22.79,22.79,0,0,0,4.27,7.5,20.3,20.3,0,0,0,6.46,5A18.37,18.37,0,0,0,141.6,90.7Z"/><path class="cls-1" d="M194.55,101q-.56-10.41-1.77-19.23t-2.5-15.37Q189,59.79,188,55.72a31,31,0,0,1-1-5.1,4.58,4.58,0,0,1,1.13-2.9A11.06,11.06,0,0,1,191,45.26a16.58,16.58,0,0,1,3.73-1.69,12.26,12.26,0,0,1,3.64-.64,5.25,5.25,0,0,1,2.32.48A2.56,2.56,0,0,1,202.05,45q.39,1.34.75,2.79t.75,3.48c.3,1.93.72,2.9,1.25,2.9s1.22-.86,2-2.59a28.85,28.85,0,0,1,3.35-5.95A16,16,0,0,1,214,41.89,13.66,13.66,0,0,1,218.3,40a19.27,19.27,0,0,1,4.67-.56,16.06,16.06,0,0,1,12.48,5.81q5.13,5.81,8,16.75a4.9,4.9,0,0,0,.71,1.6.89.89,0,0,0,.68.36,1.34,1.34,0,0,0,.84-.36,3.18,3.18,0,0,0,.81-1.45,38.17,38.17,0,0,1,4.4-8.65,29.47,29.47,0,0,1,5.18-5.79,18.88,18.88,0,0,1,5.52-3.25,16,16,0,0,1,5.42-1,12.65,12.65,0,0,1,8.65,3.48q3.89,3.48,6.89,10.73A100,100,0,0,1,287.84,76q2.24,11.08,3.73,26.27c0,2.82-.86,4.78-2.58,5.9a12.85,12.85,0,0,1-7.06,1.68,7.32,7.32,0,0,1-4.55-1.25,4.63,4.63,0,0,1-1.87-3.29q-1-10.87-2.23-19.37t-2.62-14.34a37.13,37.13,0,0,0-3.11-8.87q-1.67-3.06-3.71-3.06a4.15,4.15,0,0,0-2.54,1.5,18.06,18.06,0,0,0-3.25,5.43,82.13,82.13,0,0,0-3.6,10.8,173,173,0,0,0-3.61,17.5A6.29,6.29,0,0,1,248,99.39a10.39,10.39,0,0,1-5.83,1.58c-2.67,0-4.51-.43-5.53-1.27A5.59,5.59,0,0,1,235,95.49c-.21-3.46-.57-6.89-1.07-10.31s-1.09-6.67-1.83-9.77-1.55-6-2.44-8.63a49.33,49.33,0,0,0-2.81-6.89,19.18,19.18,0,0,0-3.06-4.59,4.39,4.39,0,0,0-3-1.64c-1.31,0-2.58.91-3.82,2.75a28.31,28.31,0,0,0-3.29,7.75,79,79,0,0,0-2.29,12.06A131.51,131.51,0,0,0,210.45,92c0,1,0,2,.06,3s.08,2,.08,3a8.48,8.48,0,0,1-.75,3.83,5.65,5.65,0,0,1-2.1,2.36,9,9,0,0,1-3.19,1.16,22.55,22.55,0,0,1-3.89.31,14.72,14.72,0,0,1-3.15-.27,3.88,3.88,0,0,1-1.79-.83,2.87,2.87,0,0,1-.88-1.44A10.75,10.75,0,0,1,194.55,101Z"/><path class="cls-1" d="M302.45,71.6a16.86,16.86,0,0,1,.31-3,19.24,19.24,0,0,0,.32-3.61,2.24,2.24,0,0,0-1.15-2l-2.54-1.56a11,11,0,0,1-2.54-2.21,5.78,5.78,0,0,1-1.13-3.83,7.36,7.36,0,0,1,1-3.59,11,11,0,0,1,2.86-3.31,84.75,84.75,0,0,1,9.58-6.17,76.83,76.83,0,0,1,9.94-4.62,64.2,64.2,0,0,1,9.83-2.9,46,46,0,0,1,9.33-1,36.1,36.1,0,0,1,33.4,21.65,33.84,33.84,0,0,1,2.85,13.81,31.91,31.91,0,0,1-3,13.67,36.84,36.84,0,0,1-8.1,11.31,38.64,38.64,0,0,1-11.94,7.71,38.4,38.4,0,0,1-28.25.35,33.51,33.51,0,0,1-11-6.91A31.45,31.45,0,0,1,305,84.89,33.69,33.69,0,0,1,302.45,71.6ZM338.7,90.7a19.18,19.18,0,0,0,6.81-1.33A21.31,21.31,0,0,0,352,85.49a21,21,0,0,0,4.86-6.21A17.85,17.85,0,0,0,358.74,71,22.24,22.24,0,0,0,357,62.2a21.93,21.93,0,0,0-4.73-7.08,21.58,21.58,0,0,0-7.12-4.73,22.71,22.71,0,0,0-8.88-1.73q-8.7,0-13.33,4.5T318.35,67a28.31,28.31,0,0,0,1.52,9.46,22.79,22.79,0,0,0,4.27,7.5,20.19,20.19,0,0,0,6.46,5A18.34,18.34,0,0,0,338.7,90.7Z"/><path class="cls-1" d="M437.07,40.35a2,2,0,0,0,.93.16c1.14,0,1.71-.75,1.71-2.27V13.89c0-3.09.69-5.28,2.09-6.59s3.69-1.95,6.93-1.95,5.6.68,7,2,2,3.68,2,7c0,1.26-.08,3.11-.25,5.54s-.32,5.16-.5,8.25-.35,6.39-.5,9.91-.23,7-.23,10.44a75.33,75.33,0,0,0,1.09,13.79,34,34,0,0,0,3.12,9.61,14.89,14.89,0,0,0,4.86,5.62,11.35,11.35,0,0,0,6.35,1.84,12.06,12.06,0,0,0,3.56-.5,12.25,12.25,0,0,1,3.79-.53,3.1,3.1,0,0,1,2.63,1.61,6.84,6.84,0,0,1,1.06,3.87,6.75,6.75,0,0,1-1.23,3.86,10.85,10.85,0,0,1-3.29,3.12,17,17,0,0,1-4.81,2.09,21.91,21.91,0,0,1-5.71.73,19.36,19.36,0,0,1-11.75-3.94q-5.31-4-8-12.11c-.16-.83-.42-1.25-.79-1.25s-.75.42-1,1.25a41.5,41.5,0,0,1-5.54,10.3,36.42,36.42,0,0,1-7.9,7.83,34.67,34.67,0,0,1-9.87,5,36.77,36.77,0,0,1-11.32,1.73,30.5,30.5,0,0,1-11.45-2.09,26.31,26.31,0,0,1-9-5.77,26.94,26.94,0,0,1-5.88-8.77,28.24,28.24,0,0,1-2.1-10.94,32.91,32.91,0,0,1,3.12-14.16A37.55,37.55,0,0,1,394.73,49a40.64,40.64,0,0,1,27.69-10.77,50.8,50.8,0,0,1,7,.52A62.38,62.38,0,0,1,437.07,40.35ZM414.59,88.28a15.83,15.83,0,0,0,7.93-2,23.56,23.56,0,0,0,6.19-5,31.87,31.87,0,0,0,4.59-6.65,52.56,52.56,0,0,0,3-7.08,50.33,50.33,0,0,0,1.73-6.19,23,23,0,0,0,.56-3.94,2.55,2.55,0,0,0-.48-1.52,3.1,3.1,0,0,0-1.4-1.06c-1.41-.36-2.88-.68-4.39-1s-3-.54-4.46-.75-2.85-.36-4.19-.46-2.55-.17-3.64-.17A24.65,24.65,0,0,0,411.52,54,18.54,18.54,0,0,0,405,58a18.18,18.18,0,0,0-4.18,6.15,20,20,0,0,0-1.48,7.79,19.34,19.34,0,0,0,1.12,6.79,15.14,15.14,0,0,0,3.15,5.12,14.08,14.08,0,0,0,4.81,3.3A16,16,0,0,0,414.59,88.28Z"/><path class="cls-1" d="M515.6,107.39a41.52,41.52,0,0,1-15.71-2.9,36.57,36.57,0,0,1-12.34-8.1A37,37,0,0,1,479.49,84a42.25,42.25,0,0,1-2.89-15.9,49.19,49.19,0,0,1,.81-9,47.9,47.9,0,0,1,2.25-8.1,6.5,6.5,0,0,0,.62-2.13,3.06,3.06,0,0,0-.39-1.48c-.27-.46-.56-1-.88-1.47s-.59-1.08-.85-1.65a4.89,4.89,0,0,1-.38-2q0-3.29,3.75-6.46a35.8,35.8,0,0,1,9.94-5.64,77.49,77.49,0,0,1,14-4,84.41,84.41,0,0,1,16.06-1.52,59.87,59.87,0,0,1,18.21,2.58,39.52,39.52,0,0,1,13.77,7.4,32,32,0,0,1,8.73,11.7,37.85,37.85,0,0,1,3.07,15.5,42.54,42.54,0,0,1-3.84,18A44.5,44.5,0,0,1,551,94.24a50,50,0,0,1-15.77,9.63A53.87,53.87,0,0,1,515.6,107.39Zm34-42.52a27,27,0,0,0-2.13-11,21.87,21.87,0,0,0-6.1-8.19,27.28,27.28,0,0,0-9.82-5.08,45.35,45.35,0,0,0-13.18-1.77q-12.94,0-19.48,6.54t-6.52,19.46a32.5,32.5,0,0,0,1.95,11.48,26.57,26.57,0,0,0,5.48,8.91,24.65,24.65,0,0,0,8.42,5.81A27.35,27.35,0,0,0,519,93.14a35.54,35.54,0,0,0,12.36-2.07A28.24,28.24,0,0,0,541,85.24a26.51,26.51,0,0,0,6.31-9A28.09,28.09,0,0,0,549.58,64.87Z"/><path class="cls-1" d="M726.08,107.39a41.56,41.56,0,0,1-15.71-2.9A36.43,36.43,0,0,1,698,96.39,36.85,36.85,0,0,1,690,84a42.25,42.25,0,0,1-2.89-15.9,49.19,49.19,0,0,1,.81-9,47.9,47.9,0,0,1,2.25-8.1,6.59,6.59,0,0,0,.63-2.13,3.07,3.07,0,0,0-.4-1.48c-.27-.46-.56-1-.88-1.47s-.59-1.08-.85-1.65a4.89,4.89,0,0,1-.37-2q0-3.29,3.75-6.46A35.73,35.73,0,0,1,702,30.14a77.49,77.49,0,0,1,14-4A84.43,84.43,0,0,1,732,24.62a59.85,59.85,0,0,1,18.2,2.58A39.57,39.57,0,0,1,764,34.6a32.08,32.08,0,0,1,8.72,11.7,37.69,37.69,0,0,1,3.07,15.5,42.39,42.39,0,0,1-3.84,18,44.5,44.5,0,0,1-10.54,14.46,50,50,0,0,1-15.77,9.63A53.87,53.87,0,0,1,726.08,107.39Zm34-42.52a27,27,0,0,0-2.13-11,21.76,21.76,0,0,0-6.1-8.19A27.32,27.32,0,0,0,742,40.64a45.42,45.42,0,0,0-13.19-1.77q-12.95,0-19.48,6.54t-6.52,19.46a32.28,32.28,0,0,0,2,11.48,26.26,26.26,0,0,0,5.48,8.91,24.52,24.52,0,0,0,8.41,5.81,27.39,27.39,0,0,0,10.77,2.07,35.54,35.54,0,0,0,12.36-2.07,28.24,28.24,0,0,0,9.66-5.83,26.67,26.67,0,0,0,6.32-9A28.25,28.25,0,0,0,760.06,64.87Z"/><path class="cls-1" d="M624.72,81.19q0-10,2.4-15.32T634,60.5q7.13,0,7.12,12.31a64.88,64.88,0,0,1-1.83,15.63,8.38,8.38,0,0,0-.19,1,6.21,6.21,0,0,0-.06.82,5.06,5.06,0,0,0,.5,2.33q3.13,8,11.66,8a12.69,12.69,0,0,0,5.67-1.31,14.22,14.22,0,0,0,4.6-3.63,17.17,17.17,0,0,0,3.07-5.39,20,20,0,0,0,1.1-6.71,20.46,20.46,0,0,0-.94-6.71,25.13,25.13,0,0,0-2.08-4.6c-.75-1.28-1.45-2.45-2.08-3.52A7.14,7.14,0,0,1,659.6,65a3.2,3.2,0,0,1,.85-2,10.13,10.13,0,0,1,2.15-1.92,12.38,12.38,0,0,1,2.83-1.45,8.5,8.5,0,0,1,2.94-.57,5,5,0,0,1,3.6,2,19.24,19.24,0,0,1,3.23,5.25,37.27,37.27,0,0,1,2.27,7.42,41.72,41.72,0,0,1,.86,8.4,29.72,29.72,0,0,1-2.27,11.54,31.1,31.1,0,0,1-6.19,9.52,29.31,29.31,0,0,1-9.1,6.5,26.16,26.16,0,0,1-11,2.4,20.83,20.83,0,0,1-8.75-1.75,18.25,18.25,0,0,1-7-6.09,3.56,3.56,0,0,0-1-1.12,1.85,1.85,0,0,0-1-.32,2.16,2.16,0,0,0-1.14.32,4,4,0,0,0-1.06,1.12,26.66,26.66,0,0,1-9.19,8,24,24,0,0,1-10.75,2.4,20.3,20.3,0,0,1-11.71-3.56,29.27,29.27,0,0,1-8.85-10.13,56.08,56.08,0,0,1-5.61-15.92,102.5,102.5,0,0,1-2-21,67.73,67.73,0,0,1,.38-7.86,13.74,13.74,0,0,1,1.37-4.92,5.78,5.78,0,0,1,2.67-2.52,10.6,10.6,0,0,1,4.23-.73,6,6,0,0,1,3.94,1,4.48,4.48,0,0,1,1.23,3.56,29.06,29.06,0,0,1-.38,4.39,28,28,0,0,0-.37,4.19,101,101,0,0,0,1.29,16.84,61.82,61.82,0,0,0,3.58,13.25,25.83,25.83,0,0,0,5.5,8.64,9.88,9.88,0,0,0,7,3.08q8.58,0,12.69-8.77a4.44,4.44,0,0,0,.5-1.29,6.58,6.58,0,0,0,.12-1.29V91a4,4,0,0,0-.12-.92q-.32-2.39-.48-4.56C624.77,84.06,624.72,82.62,624.72,81.19Z"/><path d="M30.29,101.25c0-1.72-.06-4-.19-6.73s-.29-5.81-.5-9.14-.44-6.91-.7-10.67-.56-7.49-.88-11.19-.6-7.3-.89-10.77-.56-6.61-.82-9.44a35.89,35.89,0,0,0-1.73-8.85c-.74-1.88-1.93-2.81-3.6-2.81s-2.6.44-3.1,1.33A7.59,7.59,0,0,0,17,36.25c-.07,1.31-.1,2.73-.08,4.27a11.4,11.4,0,0,1-.71,4.27,6.71,6.71,0,0,1-2.77,3.29q-2,1.34-6.25,1.34A6.45,6.45,0,0,1,2.13,47Q0,44.49,0,39.79A19.89,19.89,0,0,1,3.88,27.85a31.54,31.54,0,0,1,10.91-9.16,63.41,63.41,0,0,1,17-5.92,106,106,0,0,1,22.11-2.12,63,63,0,0,1,16,1.93,44.39,44.39,0,0,1,12.73,5.34A27.11,27.11,0,0,1,91.06,26,18,18,0,0,1,94.13,36.1a21.69,21.69,0,0,1-3.61,11.84A39.83,39.83,0,0,1,80.6,58.27a67.27,67.27,0,0,1-14.83,8.19A101.63,101.63,0,0,1,47.46,71.9a3,3,0,0,0-2.75,3.35c0,1.31.09,2.94.27,4.9s.36,4,.54,6.14.38,4.25.56,6.34.27,4,.27,5.58q0,4.38-2,6.25c-1.35,1.26-3.35,1.89-6,1.89a11.34,11.34,0,0,1-5.89-1.29A4.18,4.18,0,0,1,30.29,101.25ZM77.92,38.38a7.41,7.41,0,0,0-2.27-5.09A20.73,20.73,0,0,0,69.52,29a39.58,39.58,0,0,0-8.87-3A50,50,0,0,0,50,24.9a44.92,44.92,0,0,0-4.6.2,10.16,10.16,0,0,0-2.94.67A3.08,3.08,0,0,0,41,27a3.9,3.9,0,0,0-.42,1.92c0,.53.08,1.74.23,3.64s.36,4.12.63,6.63.53,5.12.81,7.87.59,5.2.92,7.4a9.61,9.61,0,0,0,.66,3.21,1.48,1.48,0,0,0,1.38.77,24.37,24.37,0,0,0,6.08-.9,52,52,0,0,0,7.11-2.42,63.72,63.72,0,0,0,7.12-3.54,48,48,0,0,0,6.25-4.23,24.17,24.17,0,0,0,4.48-4.54A7.6,7.6,0,0,0,77.92,38.38Z"/><path d="M100.16,66.25a16,16,0,0,1,.31-3,19.16,19.16,0,0,0,.31-3.6,2.21,2.21,0,0,0-1.14-2L97.1,56.08a10.8,10.8,0,0,1-2.55-2.2A5.8,5.8,0,0,1,93.43,50a7.35,7.35,0,0,1,1-3.58,10.84,10.84,0,0,1,2.85-3.31A83,83,0,0,1,106.85,37a76.81,76.81,0,0,1,9.93-4.63,64.58,64.58,0,0,1,9.84-2.89,45.28,45.28,0,0,1,9.33-1,36.08,36.08,0,0,1,33.4,21.64A33.85,33.85,0,0,1,172.2,63.9a31.9,31.9,0,0,1-3,13.66,36.86,36.86,0,0,1-8.11,11.32,38.68,38.68,0,0,1-11.93,7.7,38.34,38.34,0,0,1-28.25.36,33.49,33.49,0,0,1-11-6.92,31.35,31.35,0,0,1-7.19-10.48A33.65,33.65,0,0,1,100.16,66.25Zm36.25,19.1A19.18,19.18,0,0,0,143.22,84a21.4,21.4,0,0,0,6.46-3.87,20.93,20.93,0,0,0,4.85-6.21,17.73,17.73,0,0,0,1.92-8.31A22.28,22.28,0,0,0,150,49.77,21.58,21.58,0,0,0,142.87,45,22.71,22.71,0,0,0,134,43.31q-8.72,0-13.33,4.5t-4.61,13.82a28.55,28.55,0,0,0,1.52,9.45,22.64,22.64,0,0,0,4.28,7.5,20.12,20.12,0,0,0,6.45,5A18.42,18.42,0,0,0,136.41,85.35Z"/><path d="M189.36,95.63q-.56-10.42-1.77-19.23T185.09,61c-.87-4.38-1.62-7.94-2.27-10.64a31,31,0,0,1-1-5.11A4.54,4.54,0,0,1,183,42.38a10.74,10.74,0,0,1,2.86-2.46,16.38,16.38,0,0,1,3.73-1.69,11.93,11.93,0,0,1,3.64-.65,5.25,5.25,0,0,1,2.32.48,2.56,2.56,0,0,1,1.35,1.57q.39,1.34.75,2.79t.75,3.48c.3,1.93.72,2.89,1.25,2.89s1.22-.86,2-2.58a28.49,28.49,0,0,1,3.35-6,16.24,16.24,0,0,1,3.88-3.71,13.63,13.63,0,0,1,4.31-1.91,18.73,18.73,0,0,1,4.67-.57,16,16,0,0,1,12.48,5.82q5.13,5.79,8,16.75a5,5,0,0,0,.71,1.6.87.87,0,0,0,.68.35,1.34,1.34,0,0,0,.84-.35,3.29,3.29,0,0,0,.81-1.46,38.08,38.08,0,0,1,4.4-8.64,29.26,29.26,0,0,1,5.18-5.8,19.2,19.2,0,0,1,5.52-3.25,16.26,16.26,0,0,1,5.42-1,12.65,12.65,0,0,1,8.65,3.48Q274.4,45,277.4,52.27a100.21,100.21,0,0,1,5.25,18.33q2.24,11.09,3.73,26.28c0,2.81-.86,4.78-2.58,5.89a12.78,12.78,0,0,1-7.06,1.69,7.39,7.39,0,0,1-4.55-1.25,4.59,4.59,0,0,1-1.87-3.29q-1-10.87-2.23-19.38t-2.63-14.33a36.69,36.69,0,0,0-3.1-8.88q-1.67-3.06-3.71-3.06a4.15,4.15,0,0,0-2.54,1.5,17.81,17.81,0,0,0-3.25,5.44A80,80,0,0,0,249.26,72a173.58,173.58,0,0,0-3.61,17.5A6.32,6.32,0,0,1,242.8,94,10.4,10.4,0,0,1,237,95.63c-2.66,0-4.51-.43-5.52-1.28a5.58,5.58,0,0,1-1.68-4.2q-.31-5.19-1.07-10.32t-1.83-9.77q-1.11-4.66-2.44-8.62a49,49,0,0,0-2.81-6.9A19.1,19.1,0,0,0,218.55,50a4.37,4.37,0,0,0-3-1.65q-2,0-3.82,2.75a28.59,28.59,0,0,0-3.29,7.75,78.91,78.91,0,0,0-2.29,12.07,131.21,131.21,0,0,0-.85,15.72c0,1,0,2,.06,3s.08,2,.08,3a8.52,8.52,0,0,1-.75,3.84,5.63,5.63,0,0,1-2.1,2.35,8.86,8.86,0,0,1-3.19,1.17,22.59,22.59,0,0,1-3.9.31,14.68,14.68,0,0,1-3.14-.27,4,4,0,0,1-1.79-.83,3,3,0,0,1-.88-1.44A10.87,10.87,0,0,1,189.36,95.63Z"/><path d="M297.27,66.25a16,16,0,0,1,.31-3,19.16,19.16,0,0,0,.31-3.6,2.22,2.22,0,0,0-1.15-2l-2.54-1.57a11,11,0,0,1-2.54-2.2A5.8,5.8,0,0,1,290.54,50a7.35,7.35,0,0,1,1-3.58,10.84,10.84,0,0,1,2.85-3.31A82.91,82.91,0,0,1,304,37a76.92,76.92,0,0,1,9.94-4.63,64.47,64.47,0,0,1,9.83-2.89,45.44,45.44,0,0,1,9.34-1,36.08,36.08,0,0,1,33.39,21.64,33.86,33.86,0,0,1,2.86,13.82,31.9,31.9,0,0,1-3,13.66,37,37,0,0,1-8.11,11.32,38.61,38.61,0,0,1-11.94,7.7,36.94,36.94,0,0,1-14.45,2.88A37.33,37.33,0,0,1,318,96.94,33.55,33.55,0,0,1,307,90a31.2,31.2,0,0,1-7.19-10.48A33.47,33.47,0,0,1,297.27,66.25Zm36.25,19.1A19.18,19.18,0,0,0,340.33,84a21.4,21.4,0,0,0,6.46-3.87,21.09,21.09,0,0,0,4.85-6.21,17.73,17.73,0,0,0,1.92-8.31,22.28,22.28,0,0,0-6.46-15.86A21.62,21.62,0,0,0,340,45a22.66,22.66,0,0,0-8.87-1.73q-8.72,0-13.33,4.5t-4.61,13.82a28.55,28.55,0,0,0,1.52,9.45,22.79,22.79,0,0,0,4.27,7.5,20.27,20.27,0,0,0,6.46,5A18.42,18.42,0,0,0,333.52,85.35Z"/><path d="M431.88,35a2.1,2.1,0,0,0,.94.17c1.14,0,1.71-.76,1.71-2.27V8.54q0-4.62,2.08-6.58c1.39-1.3,3.7-2,6.94-2s5.59.68,7,2,2,3.68,2,7c0,1.27-.08,3.11-.25,5.54s-.32,5.17-.5,8.25-.35,6.39-.5,9.92-.23,7-.23,10.44a75.33,75.33,0,0,0,1.09,13.79,34,34,0,0,0,3.12,9.6,15,15,0,0,0,4.85,5.63A11.48,11.48,0,0,0,466.49,74a12.06,12.06,0,0,0,3.56-.5,12.53,12.53,0,0,1,3.79-.52,3.12,3.12,0,0,1,2.63,1.6,6.89,6.89,0,0,1,1.06,3.88,6.74,6.74,0,0,1-1.23,3.85A11.24,11.24,0,0,1,473,85.44a17.14,17.14,0,0,1-4.81,2.08,22,22,0,0,1-5.71.73,19.29,19.29,0,0,1-11.75-3.94q-5.31-3.94-8-12.1c-.16-.83-.42-1.25-.79-1.25s-.75.42-1,1.25a41.26,41.26,0,0,1-5.54,10.29,36,36,0,0,1-7.9,7.83,34.67,34.67,0,0,1-9.87,5A36.77,36.77,0,0,1,406.34,97a30.79,30.79,0,0,1-11.46-2.08,26.67,26.67,0,0,1-9-5.77A27.16,27.16,0,0,1,380,80.4a28.1,28.1,0,0,1-2.1-10.94,33,33,0,0,1,3.12-14.17,37.35,37.35,0,0,1,8.5-11.62A40.55,40.55,0,0,1,402,35.79a40.09,40.09,0,0,1,15.21-2.89,49.27,49.27,0,0,1,7,.52A60,60,0,0,1,431.88,35ZM409.41,82.94a15.86,15.86,0,0,0,7.93-2,23.4,23.4,0,0,0,6.19-5,31.83,31.83,0,0,0,4.58-6.65,53.41,53.41,0,0,0,3.05-7.08,47.54,47.54,0,0,0,1.72-6.19,22.25,22.25,0,0,0,.57-3.93,2.52,2.52,0,0,0-.48-1.52,3.12,3.12,0,0,0-1.4-1.07c-1.41-.36-2.88-.67-4.39-1s-3-.54-4.46-.75-2.86-.36-4.19-.45-2.55-.17-3.65-.17a24.32,24.32,0,0,0-8.54,1.42,18.54,18.54,0,0,0-6.54,4,18.27,18.27,0,0,0-4.19,6.14,20.06,20.06,0,0,0-1.48,7.79,19.3,19.3,0,0,0,1.13,6.79,15.28,15.28,0,0,0,3.15,5.13,13.92,13.92,0,0,0,4.81,3.29A16,16,0,0,0,409.41,82.94Z"/><path d="M510.42,102a41.75,41.75,0,0,1-15.71-2.89,36,36,0,0,1-20.39-20.52,42.13,42.13,0,0,1-2.9-15.9,49.11,49.11,0,0,1,.81-9,48,48,0,0,1,2.25-8.11,6.56,6.56,0,0,0,.63-2.12,3,3,0,0,0-.4-1.48c-.26-.47-.56-1-.87-1.48a17.12,17.12,0,0,1-.86-1.65,4.88,4.88,0,0,1-.37-2q0-3.3,3.75-6.46a35.48,35.48,0,0,1,9.93-5.65,78.19,78.19,0,0,1,14-4,84.25,84.25,0,0,1,16.06-1.52,60.27,60.27,0,0,1,18.21,2.58,39.68,39.68,0,0,1,13.77,7.4A32.25,32.25,0,0,1,557.09,41a37.82,37.82,0,0,1,3.06,15.5,42.57,42.57,0,0,1-3.83,18A44.88,44.88,0,0,1,545.77,88.9,50,50,0,0,1,530,98.52,53.83,53.83,0,0,1,510.42,102Zm34-42.52a27,27,0,0,0-2.13-11,21.7,21.7,0,0,0-6.1-8.18,27.49,27.49,0,0,0-9.81-5.09,45.42,45.42,0,0,0-13.19-1.77q-12.94,0-19.48,6.54t-6.52,19.46a32.28,32.28,0,0,0,2,11.48,26.3,26.3,0,0,0,5.48,8.92A24.66,24.66,0,0,0,503,85.73a27.56,27.56,0,0,0,10.77,2.06,35.78,35.78,0,0,0,12.36-2.06,28.54,28.54,0,0,0,9.67-5.83,26.89,26.89,0,0,0,6.31-9A28.26,28.26,0,0,0,544.4,59.52Z"/><path d="M720.87,102a41.71,41.71,0,0,1-15.71-2.89,36,36,0,0,1-20.4-20.52,42.33,42.33,0,0,1-2.89-15.9,49.11,49.11,0,0,1,.81-9,48,48,0,0,1,2.25-8.11,6.46,6.46,0,0,0,.62-2.12,3,3,0,0,0-.39-1.48c-.27-.47-.56-1-.88-1.48s-.59-1.07-.85-1.65a4.88,4.88,0,0,1-.38-2q0-3.3,3.75-6.46a35.55,35.55,0,0,1,9.94-5.65,78.31,78.31,0,0,1,14-4,84.33,84.33,0,0,1,16.06-1.52A60.18,60.18,0,0,1,745,21.85a39.68,39.68,0,0,1,13.77,7.4A32,32,0,0,1,767.53,41a37.82,37.82,0,0,1,3.07,15.5,42.58,42.58,0,0,1-3.84,18A44.86,44.86,0,0,1,756.22,88.9a50.13,50.13,0,0,1-15.77,9.62A53.87,53.87,0,0,1,720.87,102Zm34-42.52a27,27,0,0,0-2.13-11,21.91,21.91,0,0,0-6.1-8.18,27.45,27.45,0,0,0-9.82-5.09,45.35,45.35,0,0,0-13.18-1.77q-12.95,0-19.48,6.54t-6.52,19.46a32.5,32.5,0,0,0,2,11.48,26.46,26.46,0,0,0,5.48,8.92,24.7,24.7,0,0,0,8.42,5.81,27.53,27.53,0,0,0,10.77,2.06,35.78,35.78,0,0,0,12.36-2.06,28.4,28.4,0,0,0,9.66-5.83,26.74,26.74,0,0,0,6.31-9A28.27,28.27,0,0,0,754.85,59.52Z"/><path d="M619.52,76q0-9.95,2.4-15.31t6.87-5.37q7.13,0,7.13,12.31a66.57,66.57,0,0,1-.48,8.21,63.91,63.91,0,0,1-1.36,7.41q-.12.52-.18,1a4.75,4.75,0,0,0-.07.81,5.24,5.24,0,0,0,.5,2.34q3.15,8,11.67,8a12.69,12.69,0,0,0,5.67-1.31,14.46,14.46,0,0,0,4.6-3.63A17.46,17.46,0,0,0,659.33,85a19.81,19.81,0,0,0,1.11-6.71,20.46,20.46,0,0,0-.94-6.71A25.56,25.56,0,0,0,657.42,67l-2.09-3.52a7.17,7.17,0,0,1-.93-3.64,3.18,3.18,0,0,1,.85-2,10.13,10.13,0,0,1,2.15-1.92,12.82,12.82,0,0,1,2.83-1.46,8.71,8.71,0,0,1,2.94-.56,5,5,0,0,1,3.6,2A19.48,19.48,0,0,1,670,61.19a37.73,37.73,0,0,1,2.27,7.42,41.7,41.7,0,0,1,.86,8.39,29.56,29.56,0,0,1-2.28,11.55,31,31,0,0,1-6.18,9.52,29.4,29.4,0,0,1-9.11,6.5,26.12,26.12,0,0,1-11,2.39,20.71,20.71,0,0,1-8.75-1.75,18.27,18.27,0,0,1-7-6.08,3.72,3.72,0,0,0-1-1.13,2,2,0,0,0-1-.31,2.21,2.21,0,0,0-1.14.31,4.05,4.05,0,0,0-1.07,1.13,26.55,26.55,0,0,1-9.18,8,24.16,24.16,0,0,1-10.75,2.4A20.22,20.22,0,0,1,592.92,106a29.36,29.36,0,0,1-8.86-10.12,56.51,56.51,0,0,1-5.6-15.92,102.6,102.6,0,0,1-2-21,67.66,67.66,0,0,1,.38-7.85,13.54,13.54,0,0,1,1.37-4.92,5.78,5.78,0,0,1,2.67-2.52,10.57,10.57,0,0,1,4.23-.73,6.06,6.06,0,0,1,3.93,1,4.48,4.48,0,0,1,1.23,3.57,29.06,29.06,0,0,1-.37,4.39,28,28,0,0,0-.38,4.19A101.87,101.87,0,0,0,590.85,73a61.63,61.63,0,0,0,3.59,13.25,25.63,25.63,0,0,0,5.5,8.65,9.87,9.87,0,0,0,7,3.08q8.58,0,12.69-8.77a4.88,4.88,0,0,0,.5-1.29,6.58,6.58,0,0,0,.12-1.29V85.8a3.94,3.94,0,0,0-.12-.92c-.21-1.59-.37-3.12-.48-4.56S619.52,77.42,619.52,76Z"/></svg>