<svg id="Layer_1" data-name="Layer 1" xmlns="http://www.w3.org/2000/svg" viewBox="0 0 304.39 91.69"><defs><style>.cls-1{fill:#f16979;}</style></defs><path class="cls-1" d="M39.67,84.2a42.35,42.35,0,0,1-16-2.94A36.66,36.66,0,0,1,3,60.38,42.86,42.86,0,0,1,0,44.21,50,50,0,0,1,.83,35a48.36,48.36,0,0,1,2.29-8.24,6.84,6.84,0,0,0,.63-2.16,3.16,3.16,0,0,0-.4-1.51c-.27-.48-.57-1-.89-1.5a17.72,17.72,0,0,1-.87-1.68,5,5,0,0,1-.38-2q0-3.35,3.81-6.57A36.48,36.48,0,0,1,15.13,5.62,78.75,78.75,0,0,1,29.4,1.55,85.49,85.49,0,0,1,45.74,0,60.92,60.92,0,0,1,64.26,2.63a40.36,40.36,0,0,1,14,7.52,32.81,32.81,0,0,1,8.88,11.91,38.43,38.43,0,0,1,3.11,15.77,43.23,43.23,0,0,1-3.9,18.29A45.36,45.36,0,0,1,75.64,70.83a50.77,50.77,0,0,1-16,9.79A54.64,54.64,0,0,1,39.67,84.2ZM74.24,41A27.55,27.55,0,0,0,72.08,29.8a22.22,22.22,0,0,0-6.21-8.33,27.69,27.69,0,0,0-10-5.17,46.22,46.22,0,0,0-13.42-1.8q-13.15,0-19.81,6.65T16,41a32.82,32.82,0,0,0,2,11.67,26.89,26.89,0,0,0,5.58,9.08,25,25,0,0,0,8.56,5.91,27.92,27.92,0,0,0,11,2.1,36.28,36.28,0,0,0,12.57-2.1,28.84,28.84,0,0,0,9.83-5.94,27.16,27.16,0,0,0,6.42-9.13A28.69,28.69,0,0,0,74.24,41Z"/><path class="cls-1" d="M253.8,84.2a42.32,42.32,0,0,1-16-2.94,36.64,36.64,0,0,1-20.75-20.88,42.86,42.86,0,0,1-2.95-16.17A50,50,0,0,1,215,35a48.36,48.36,0,0,1,2.29-8.24,6.84,6.84,0,0,0,.63-2.16,3,3,0,0,0-.4-1.51c-.27-.48-.56-1-.89-1.5s-.6-1.09-.87-1.68a5,5,0,0,1-.38-2q0-3.35,3.82-6.57a36.19,36.19,0,0,1,10.11-5.74,78.63,78.63,0,0,1,14.26-4.07A85.64,85.64,0,0,1,259.86,0a60.92,60.92,0,0,1,18.52,2.63,40.19,40.19,0,0,1,14,7.52,32.7,32.7,0,0,1,8.88,11.91,38.44,38.44,0,0,1,3.12,15.77,43.38,43.38,0,0,1-3.9,18.29,45.39,45.39,0,0,1-10.73,14.71,50.66,50.66,0,0,1-16,9.79A54.59,54.59,0,0,1,253.8,84.2ZM288.37,41A27.55,27.55,0,0,0,286.2,29.8,22.12,22.12,0,0,0,280,21.47a27.69,27.69,0,0,0-10-5.17,46.2,46.2,0,0,0-13.41-1.8q-13.17,0-19.82,6.65T230.15,41a32.82,32.82,0,0,0,2,11.67,26.71,26.71,0,0,0,5.57,9.08,25.14,25.14,0,0,0,8.56,5.91,28,28,0,0,0,11,2.1,36.28,36.28,0,0,0,12.57-2.1,28.74,28.74,0,0,0,9.83-5.94,27.33,27.33,0,0,0,6.43-9.13A28.86,28.86,0,0,0,288.37,41Z"/><path class="cls-1" d="M150.69,57.55q0-10.12,2.44-15.58t7-5.47q7.24,0,7.25,12.53a66.65,66.65,0,0,1-.49,8.35,68,68,0,0,1-1.37,7.54c-.09.36-.15.68-.2,1a6.23,6.23,0,0,0-.06.83,5.23,5.23,0,0,0,.51,2.37q3.19,8.16,11.87,8.16a12.8,12.8,0,0,0,5.76-1.34,14.71,14.71,0,0,0,4.69-3.68,17.78,17.78,0,0,0,3.11-5.49,20.22,20.22,0,0,0,1.13-6.83,20.81,20.81,0,0,0-1-6.82,25.44,25.44,0,0,0-2.12-4.69l-2.12-3.58a7.32,7.32,0,0,1-1-3.71,3.26,3.26,0,0,1,.87-2,10.15,10.15,0,0,1,2.18-2,12.83,12.83,0,0,1,2.88-1.48,8.55,8.55,0,0,1,3-.58,5.08,5.08,0,0,1,3.67,2.06A19.58,19.58,0,0,1,202,42.5a38.17,38.17,0,0,1,2.31,7.55,42.38,42.38,0,0,1,.87,8.54,30.16,30.16,0,0,1-2.31,11.74A31.52,31.52,0,0,1,196.62,80a29.9,29.9,0,0,1-9.26,6.62,26.58,26.58,0,0,1-11.19,2.43,21.12,21.12,0,0,1-8.91-1.78,18.58,18.58,0,0,1-7.14-6.19,3.57,3.57,0,0,0-1-1.14,1.9,1.9,0,0,0-1-.32,2.23,2.23,0,0,0-1.17.32,4,4,0,0,0-1.08,1.14,26.88,26.88,0,0,1-9.35,8.16,24.36,24.36,0,0,1-10.93,2.44,20.64,20.64,0,0,1-11.91-3.62,29.79,29.79,0,0,1-9-10.3,57.15,57.15,0,0,1-5.7-16.19,104.62,104.62,0,0,1-2-21.35,68,68,0,0,1,.38-8,13.65,13.65,0,0,1,1.4-5,5.76,5.76,0,0,1,2.71-2.56,10.58,10.58,0,0,1,4.3-.74,6.23,6.23,0,0,1,4,1A4.56,4.56,0,0,1,121,28.62a30.16,30.16,0,0,1-.38,4.47,27.74,27.74,0,0,0-.39,4.26,103.21,103.21,0,0,0,1.32,17.13A62.81,62.81,0,0,0,125.17,68a26.11,26.11,0,0,0,5.6,8.8,10.08,10.08,0,0,0,7.14,3.14q8.73,0,12.91-8.93a5,5,0,0,0,.51-1.31,6.86,6.86,0,0,0,.12-1.31v-.81a4.09,4.09,0,0,0-.12-.93c-.22-1.62-.38-3.17-.49-4.64S150.69,59,150.69,57.55Z"/></svg>